<svg xmlns="http://www.w3.org/2000/svg" viewBox="0 0 755.90549 755.90555" height="200" width="200"><g transform="matrix(15.59758 0 0 15.53199 -1805.104 -757.827)"><path d="M143.458 54.886l.953.123c-.023.552-.053 2.352.773 1.958 1.337-.636.953-1.543.817-1.858-1.954-2.016-1.729-2.29-1.714-3.383.532-3.408 5.18-2.398 3.719 1.455h-.784c.202-1.665-.041-2.183-.853-2.143-.812.039-1.717.819-.443 2.098 1.512 1.34 1.822 4.492-.206 5.07-2.69.768-2.089-1.603-2.262-3.32zM155.377 73.724c-.296 8.316-7.07 14.965-15.383 14.966-8.501 0-15.393-6.955-15.393-15.533a15.555 15.555 0 0 1 7.11-13.095l-4.685-7.523a24.344 24.344 0 0 0-11.296 20.582c0 13.441 10.852 24.338 24.24 24.338 13.089 0 23.755-10.418 24.223-23.446z" fill="navy"/><ellipse ry="15.533" rx="15.393" cy="73.157" cx="139.994" transform="matrix(.47275 0 0 .47275 73.812 38.572)" fill="navy"/><path d="M129.201 51.31l1.146-.535 3.506 8.134-.728.343c-1.37-2.602-2.577-5.306-3.924-7.942zM132.104 50.092l4.095 8.007.691-.196-.52-5.687 1.842 5.506.68-.08.521-8.85-1.201.04-.1 5.066-1.782-4.886-1.202.18.44 5.206-2.302-4.686zM141.436 48.811l-1.863 8.831.821.02.801-3.235.958.018.244 3.418.821.12-.64-9.115zm.345 2.534l.21 1.72-.576-.02zM151.082 51.485l3.78 2.432-.949 1.23-1.198-.88-4.065 6.043-.688-.446 3.742-6.252-1.326-.749zM155.255 54.23l-5.542 6.88.61.53 2.536-2.83 1.175 1.169-2.767 2.6.582.67 6.774-5.67-.919-1.05-2.685 2.524-1.258-1.252 2.529-2.675zM159.093 58.164l-6.946 5.458 1.494 2.342 1.506-.796-1.259-1.917 1.815-1.19 1.285 2.135 1.193-.63-1.35-2.248 1.753-1.188 1.468 2.447 1.4-.74zM153.77 66.22l7.887-3.981 1.241 2.967c.31.742-.363 1.707-1.003 2.194-.568.433-1.406.413-2.116.34-.538-.056-1.153-.398-1.516-.581l-3.327 2.152-.312-.892 3.3-2.081-.346-.896-3.463 1.49z" fill="navy" fill-rule="evenodd"/><path d="M158.858 64.964l1.959-.757.723 1.957c.242.656-1.784 1.182-2.03.528z" fill="#fff" fill-rule="evenodd" stroke="#000" stroke-width=".265"/><path d="M154.993 69.7l8.613-1.997.568 4.104-1.582.089-.304-2.675-2.08.369.275 2.425-1.349.065-.252-2.255-2.053.363.147 2.024-1.612.091z" fill="navy" fill-rule="evenodd"/></g></svg>