<svg xmlns="http://www.w3.org/2000/svg" viewBox="0 0 210 297" height="297mm" width="210mm"><path d="M63.952 21.179l6.02.178q.457 0 1.143-.203.711-.229.94-.229.229 0 .356.152.152.127.152.33 0 .534-.483.915-.482.356-1.27.508-1.473.33-2.616.33-1.55 1.067-3.022 6.147 2.514 0 3.124.076l-.051 1.194q-.381.025-1.143.025l-2.311-.076q-1.423 4.344-3.836 6.909Q58.542 40 55.85 40q-1.651 0-2.667-.99-1.016-.99-1.016-2.616 0-2.617 3.124-4.75 3.124-2.16 7.696-2.286 1.55-4.877 3.632-6.198l-4.089-.152q-2.565 0-3.835.66-1.245.66-1.245 1.753 0 .584.483.99.482.381.965.381.482 0 .711-.025.254-.05.61-.178.38-.152.533-.203.533-.178 1.295-.559l.534.66q-1.93 1.931-4.217 1.931-1.016 0-1.676-.635-.66-.635-.66-1.6 0-2.108 2.159-3.556t5.765-1.448zm-3.556 14.199q1.372-2.134 2.185-4.776-3.15.254-5.563 2.007-2.387 1.753-2.387 3.76 0 .787.533 1.295.559.508 1.448.508.889 0 1.93-.762 1.042-.737 1.854-2.032zM79.158 34.158l.533.432q-.432 1.067-1.371 1.804-.915.736-1.677.736-.736 0-1.168-.508-.432-.533-.432-1.371 0-.839.28-2.16-1.194 1.88-2.566 2.947-1.372 1.067-2.311 1.067-1.423 0-1.423-2.032 0-1.727 1.169-4.42 1.168-2.692 1.701-3.124l1.22.533q-1.042 1.677-1.575 3.302-.534 1.626-.534 2.185 0 .533.33.863.356.33.813.33 1.016 0 2.515-1.854 1.524-1.88 3.099-5.588l1.295.585q-.05.203-1.168 2.946-1.092 2.743-1.092 3.302 0 .533.228.813.254.28.483.28.254 0 .38-.026.128-.026.255-.102t.203-.127q.102-.05.229-.178l.203-.177q.05-.077.178-.229.152-.178.203-.229zM85.316 26.183q-1.422 0-1.422-1.143 0-.635.355-1.067.356-.432.915-.432t.914.33q.356.33.356.864 0 .533-.305.99-.305.458-.813.458zm-.33 7.493l.508.432q-.61 1.168-1.626 2.006-.99.813-1.803.813-1.422 0-1.422-1.981 0-2.464 2.032-6.426.457-.864.533-1.016l1.092.66q-.533.965-1.32 3.073-.763 2.109-.763 2.718 0 .584.254.838t.61.254q.686 0 1.905-1.371zM92.113 26.183q-1.423 0-1.423-1.143 0-.635.356-1.067.355-.432.914-.432t.915.33q.355.33.355.864 0 .533-.305.99-.304.458-.812.458zm-.33 7.493l.507.432q-.61 1.168-1.625 2.006-.99.813-1.804.813-1.422 0-1.422-1.981 0-2.464 2.032-6.426.457-.864.533-1.016l1.093.66q-.534.965-1.321 3.073-.762 2.109-.762 2.718 0 .584.254.838t.61.254q.685 0 1.904-1.371zM98.198 29.967q1.22-1.244 2.134-1.701.94-.483 1.752-.483.838 0 1.372.584.559.559.559 1.473 0 2.363-1.982 4.979-1.98 2.59-4.267 2.59-.686 0-1.295-.253l.61-1.118q.406.102.634.102 1.55 0 2.82-1.728 1.27-1.727 1.27-3.403 0-.534-.356-.864-.33-.355-.863-.355-1.169 0-2.744 1.88-1.55 1.879-2.717 4.901l-1.55-.635q.762-3.886 3.048-9.474t3.81-7.9l1.296.458q-1.677 3.124-3.582 7.747-1.88 4.623-2.21 6.274 1.042-1.829 2.26-3.074zM109.873 26.183q-1.423 0-1.423-1.143 0-.635.356-1.067.356-.432.914-.432.56 0 .915.33t.355.864q0 .533-.304.99-.305.458-.813.458zm-.33 7.493l.508.432q-.61 1.168-1.626 2.006-.99.813-1.803.813-1.423 0-1.423-1.981 0-2.464 2.032-6.426.457-.864.534-1.016l1.092.66q-.534.965-1.321 3.073-.762 2.109-.762 2.718 0 .584.254.838t.61.254q.685 0 1.905-1.371z" /></svg>
