<?xml version="1.0" encoding="UTF-8" standalone="no"?>
<svg
   xmlns:dc="http://purl.org/dc/elements/1.1/"
   xmlns:cc="http://creativecommons.org/ns#"
   xmlns:rdf="http://www.w3.org/1999/02/22-rdf-syntax-ns#"
   xmlns:svg="http://www.w3.org/2000/svg"
   xmlns="http://www.w3.org/2000/svg"
   id="svg8"
   version="1.1"
   viewBox="0 0 210 297"
   height="297mm"
   width="210mm">
  <defs
     id="defs2" />
  <metadata
     id="metadata5">
    <rdf:RDF>
      <cc:Work
         rdf:about="">
        <dc:format>image/svg+xml</dc:format>
        <dc:type
           rdf:resource="http://purl.org/dc/dcmitype/StillImage" />
        <dc:title></dc:title>
      </cc:Work>
    </rdf:RDF>
  </metadata>
  <g
     id="layer1">
    <path
       d="m 63.952362,21.178978 6.0198,0.1778 q 0.4572,0 1.143,-0.2032 0.7112,-0.2286 0.9398,-0.2286 0.2286,0 0.3556,0.1524 0.1524,0.127 0.1524,0.3302 0,0.5334 -0.4826,0.9144 -0.4826,0.3556 -1.27,0.508 -1.4732,0.3302 -2.6162,0.3302 -1.5494,1.0668 -3.0226,6.146799 2.5146,0 3.1242,0.0762 l -0.0508,1.1938 q -0.381,0.0254 -1.143,0.0254 l -2.3114,-0.0762 q -1.4224,4.3434 -3.8354,6.9088 -2.413,2.5654 -5.1054,2.5654 -1.651,0 -2.667,-0.9906 -1.016,-0.9906 -1.016,-2.6162 0,-2.6162 3.1242,-4.7498 3.1242,-2.159 7.6962,-2.286 1.5494,-4.876799 3.6322,-6.197599 l -4.0894,-0.1524 q -2.5654,0 -3.8354,0.6604 -1.2446,0.6604 -1.2446,1.752599 0,0.5842 0.4826,0.9906 0.4826,0.381 0.9652,0.381 0.4826,0 0.7112,-0.0254 0.254,-0.0508 0.6096,-0.1778 0.381,-0.1524 0.5334,-0.2032 0.5334,-0.1778 1.2954,-0.5588 l 0.5334,0.6604 q -1.9304,1.9304 -4.2164,1.9304 -1.016,0 -1.6764,-0.635 -0.6604,-0.635 -0.6604,-1.6002 0,-2.108199 2.159,-3.555999 2.159,-1.4478 5.7658,-1.4478 z m -3.556,14.198599 q 1.3716,-2.1336 2.1844,-4.7752 -3.1496,0.254 -5.5626,2.0066 -2.3876,1.7526 -2.3876,3.7592 0,0.7874 0.5334,1.2954 0.5588,0.508 1.4478,0.508 0.889,0 1.9304,-0.762 1.0414,-0.7366 1.8542,-2.032 z"
       style="font-style:normal;font-variant:normal;font-weight:normal;font-stretch:normal;font-size:medium;line-height:125%;font-family:'Marck Script';-inkscape-font-specification:'Marck Script';text-align:start;letter-spacing:0px;word-spacing:0px;writing-mode:lr-tb;text-anchor:start;fill:#000000;fill-opacity:1;stroke:none;stroke-width:0.26458332px;stroke-linecap:butt;stroke-linejoin:miter;stroke-opacity:1"
       id="path3946" />
    <path
       d="m 79.157833,34.158377 0.5334,0.4318 q -0.4318,1.0668 -1.3716,1.8034 -0.9144,0.7366 -1.6764,0.7366 -0.7366,0 -1.1684,-0.508 -0.4318,-0.5334 -0.4318,-1.3716 0,-0.8382 0.2794,-2.159 -1.1938,1.8796 -2.5654,2.9464 -1.3716,1.0668 -2.3114,1.0668 -1.4224,0 -1.4224,-2.032 0,-1.7272 1.1684,-4.4196 1.1684,-2.6924 1.7018,-3.1242 l 1.2192,0.5334 q -1.0414,1.6764 -1.5748,3.302 -0.5334,1.6256 -0.5334,2.1844 0,0.5334 0.3302,0.8636 0.3556,0.3302 0.8128,0.3302 1.016,0 2.5146,-1.8542 1.524,-1.8796 3.0988,-5.588 l 1.2954,0.5842 q -0.0508,0.2032 -1.1684,2.9464 -1.0922,2.7432 -1.0922,3.302 0,0.5334 0.2286,0.8128 0.254,0.2794 0.4826,0.2794 0.254,0 0.381,-0.0254 0.127,-0.0254 0.254,-0.1016 0.127,-0.0762 0.2032,-0.127 0.1016,-0.0508 0.2286,-0.1778 l 0.2032,-0.1778 q 0.0508,-0.0762 0.1778,-0.2286 0.1524,-0.1778 0.2032,-0.2286 z"
       style="font-style:normal;font-variant:normal;font-weight:normal;font-stretch:normal;font-size:medium;line-height:125%;font-family:'Marck Script';-inkscape-font-specification:'Marck Script';text-align:start;letter-spacing:0px;word-spacing:0px;writing-mode:lr-tb;text-anchor:start;fill:#000000;fill-opacity:1;stroke:none;stroke-width:0.26458332px;stroke-linecap:butt;stroke-linejoin:miter;stroke-opacity:1"
       id="path3948" />
    <path
       d="m 85.316143,26.182777 q -1.4224,0 -1.4224,-1.143 0,-0.634999 0.3556,-1.066799 0.3556,-0.4318 0.9144,-0.4318 0.5588,0 0.9144,0.3302 0.3556,0.3302 0.3556,0.8636 0,0.533399 -0.3048,0.990599 -0.3048,0.4572 -0.8128,0.4572 z m -0.3302,7.493 0.508,0.4318 q -0.6096,1.1684 -1.6256,2.0066 -0.9906,0.8128 -1.8034,0.8128 -1.4224,0 -1.4224,-1.9812 0,-2.4638 2.032,-6.4262 0.4572,-0.8636 0.5334,-1.016 l 1.0922,0.6604 q -0.5334,0.9652 -1.3208,3.0734 -0.762,2.1082 -0.762,2.7178 0,0.5842 0.254,0.8382 0.254,0.254 0.6096,0.254 0.6858,0 1.905,-1.3716 z"
       style="font-style:normal;font-variant:normal;font-weight:normal;font-stretch:normal;font-size:medium;line-height:125%;font-family:'Marck Script';-inkscape-font-specification:'Marck Script';text-align:start;letter-spacing:0px;word-spacing:0px;writing-mode:lr-tb;text-anchor:start;fill:#000000;fill-opacity:1;stroke:none;stroke-width:0.26458332px;stroke-linecap:butt;stroke-linejoin:miter;stroke-opacity:1"
       id="path3950" />
    <path
       d="m 92.112629,26.182777 q -1.4224,0 -1.4224,-1.143 0,-0.634999 0.3556,-1.066799 0.3556,-0.4318 0.9144,-0.4318 0.5588,0 0.9144,0.3302 0.3556,0.3302 0.3556,0.8636 0,0.533399 -0.3048,0.990599 -0.3048,0.4572 -0.8128,0.4572 z m -0.3302,7.493 0.508,0.4318 q -0.6096,1.1684 -1.6256,2.0066 -0.9906,0.8128 -1.8034,0.8128 -1.4224,0 -1.4224,-1.9812 0,-2.4638 2.032,-6.4262 0.4572,-0.8636 0.5334,-1.016 l 1.0922,0.6604 q -0.5334,0.9652 -1.3208,3.0734 -0.762,2.1082 -0.762,2.7178 0,0.5842 0.254,0.8382 0.254,0.254 0.6096,0.254 0.6858,0 1.905,-1.3716 z"
       style="font-style:normal;font-variant:normal;font-weight:normal;font-stretch:normal;font-size:medium;line-height:125%;font-family:'Marck Script';-inkscape-font-specification:'Marck Script';text-align:start;letter-spacing:0px;word-spacing:0px;writing-mode:lr-tb;text-anchor:start;fill:#000000;fill-opacity:1;stroke:none;stroke-width:0.26458332px;stroke-linecap:butt;stroke-linejoin:miter;stroke-opacity:1"
       id="path3952" />
    <path
       d="m 98.197911,29.967377 q 1.2192,-1.2446 2.133599,-1.7018 0.9398,-0.4826 1.7526,-0.4826 0.8382,0 1.3716,0.5842 0.5588,0.5588 0.5588,1.4732 0,2.3622 -1.9812,4.9784 -1.9812,2.5908 -4.267199,2.5908 -0.6858,0 -1.2954,-0.254 l 0.6096,-1.1176 q 0.4064,0.1016 0.635,0.1016 1.5494,0 2.819399,-1.7272 1.27,-1.7272 1.27,-3.4036 0,-0.5334 -0.3556,-0.8636 -0.3302,-0.3556 -0.8636,-0.3556 -1.168399,0 -2.743199,1.8796 -1.5494,1.8796 -2.7178,4.9022 l -1.5494,-0.635 q 0.762,-3.8862 3.048,-9.4742 2.286,-5.587999 3.809999,-7.899399 l 1.2954,0.4572 q -1.6764,3.1242 -3.581399,7.746999 -1.8796,4.6228 -2.2098,6.2738 1.0414,-1.8288 2.2606,-3.0734 z"
       style="font-style:normal;font-variant:normal;font-weight:normal;font-stretch:normal;font-size:medium;line-height:125%;font-family:'Marck Script';-inkscape-font-specification:'Marck Script';text-align:start;letter-spacing:0px;word-spacing:0px;writing-mode:lr-tb;text-anchor:start;fill:#000000;fill-opacity:1;stroke:none;stroke-width:0.26458332px;stroke-linecap:butt;stroke-linejoin:miter;stroke-opacity:1"
       id="path3954" />
    <path
       d="m 109.87278,26.182777 q -1.4224,0 -1.4224,-1.143 0,-0.634999 0.3556,-1.066799 0.3556,-0.4318 0.9144,-0.4318 0.5588,0 0.9144,0.3302 0.3556,0.3302 0.3556,0.8636 0,0.533399 -0.3048,0.990599 -0.3048,0.4572 -0.8128,0.4572 z m -0.3302,7.493 0.508,0.4318 q -0.6096,1.1684 -1.6256,2.0066 -0.9906,0.8128 -1.8034,0.8128 -1.4224,0 -1.4224,-1.9812 0,-2.4638 2.032,-6.4262 0.4572,-0.8636 0.5334,-1.016 l 1.0922,0.6604 q -0.5334,0.9652 -1.3208,3.0734 -0.762,2.1082 -0.762,2.7178 0,0.5842 0.254,0.8382 0.254,0.254 0.6096,0.254 0.6858,0 1.905,-1.3716 z"
       style="font-style:normal;font-variant:normal;font-weight:normal;font-stretch:normal;font-size:medium;line-height:125%;font-family:'Marck Script';-inkscape-font-specification:'Marck Script';text-align:start;letter-spacing:0px;word-spacing:0px;writing-mode:lr-tb;text-anchor:start;fill:#000000;fill-opacity:1;stroke:none;stroke-width:0.26458332px;stroke-linecap:butt;stroke-linejoin:miter;stroke-opacity:1"
       id="path3956" />
  </g>
</svg>
