<svg xmlns="http://www.w3.org/2000/svg" width="82" height="30" viewBox="0 0 21.695833 7.9374604"><path style="line-height:100%;-inkscape-font-specification:'Marck Script';text-align:start" d="M17.802 0c-.375.57-.843 1.545-1.405 2.925s-.937 2.549-1.125 3.508l.572.235c.287-.746.621-1.351 1.002-1.815.388-.464.725-.696 1.012-.696.131 0 .237.044.319.132a.416.416 0 0 1 .13.32c0 .413-.155.833-.468 1.26-.312.426-.659.64-1.04.64-.056 0-.134-.013-.234-.039l-.225.414c.15.063.31.095.478.095.562 0 1.087-.32 1.574-.96.487-.645.73-1.26.73-1.843a.74.74 0 0 0-.205-.546.653.653 0 0 0-.506-.216c-.2 0-.415.06-.646.179-.225.113-.488.323-.788.63-.3.307-.577.686-.833 1.138.081-.408.353-1.182.815-2.323.468-1.141.908-2.098 1.32-2.869zM7.335.875c-.056 0-.171.028-.346.084-.169.05-.31.075-.422.075L4.347.97c-.887 0-1.596.178-2.127.536-.53.357-.796.796-.796 1.316 0 .239.081.436.244.593a.854.854 0 0 0 .618.235c.562 0 1.08-.238 1.555-.715l-.197-.244a3.78 3.78 0 0 1-.477.207 4.14 4.14 0 0 0-.197.075 1.647 1.647 0 0 1-.225.066 2.63 2.63 0 0 1-.262.01.573.573 0 0 1-.356-.142.463.463 0 0 1-.178-.367c0-.27.153-.486.459-.649.312-.163.783-.244 1.414-.244l1.509.056c-.513.326-.959 1.091-1.34 2.295-1.124.031-2.07.314-2.839.847C.384 5.37 0 5.956 0 6.602c0 .401.125.724.375.969.25.244.578.366.984.366.662 0 1.29-.316 1.883-.95.593-.633 1.064-1.485 1.414-2.558l.853.029c.187 0 .327-.003.421-.01l.019-.441c-.15-.02-.534-.029-1.152-.029.362-1.254.734-2.013 1.115-2.276.28 0 .602-.04.964-.122.194-.038.35-.1.469-.188a.42.42 0 0 0 .178-.339.152.152 0 0 0-.057-.122.16.16 0 0 0-.13-.056zm4.835.968a.417.417 0 0 0-.337.16.602.602 0 0 0-.131.395c0 .282.175.423.524.423a.345.345 0 0 0 .3-.169.65.65 0 0 0 .113-.367.416.416 0 0 0-.131-.32.475.475 0 0 0-.338-.122zm2.507 0a.417.417 0 0 0-.337.16.602.602 0 0 0-.132.395c0 .282.175.423.525.423a.345.345 0 0 0 .3-.169.65.65 0 0 0 .112-.367.416.416 0 0 0-.13-.32.475.475 0 0 0-.338-.122zm6.55 0a.417.417 0 0 0-.337.16.602.602 0 0 0-.131.395c0 .282.175.423.524.423a.345.345 0 0 0 .3-.169.65.65 0 0 0 .113-.367.416.416 0 0 0-.131-.32.475.475 0 0 0-.338-.122zM9.44 3.235c-.387.916-.768 1.605-1.143 2.07-.368.457-.678.686-.927.686a.428.428 0 0 1-.3-.122.434.434 0 0 1-.122-.32c0-.138.065-.408.197-.81.13-.4.325-.808.58-1.221l-.45-.198c-.13.106-.34.492-.627 1.157-.287.664-.43 1.21-.43 1.636 0 .502.174.753.524.753.23 0 .515-.132.852-.396.338-.263.653-.626.947-1.09a4.045 4.045 0 0 0-.103.8c0 .206.052.375.159.507.106.125.25.188.43.188.188 0 .394-.091.619-.273.231-.182.4-.404.506-.667l-.197-.16a1.862 1.862 0 0 0-.14.169l-.075.066a.346.346 0 0 1-.085.065 1.892 1.892 0 0 1-.075.047.294.294 0 0 1-.093.038.78.78 0 0 1-.141.01c-.056 0-.116-.035-.178-.104-.056-.069-.084-.17-.084-.301 0-.138.134-.546.403-1.223.275-.677.418-1.04.43-1.09zm2.01.076l-.198.376c-.5.978-.75 1.771-.75 2.38 0 .488.176.733.525.733.2 0 .422-.1.666-.301.25-.207.449-.455.599-.743l-.187-.16c-.3.338-.534.508-.703.508a.306.306 0 0 1-.225-.094c-.062-.063-.094-.167-.094-.31 0-.151.094-.486.281-1.007.194-.52.356-.9.488-1.138zm2.506 0l-.197.376c-.5.978-.75 1.771-.75 2.38 0 .488.175.733.525.733.2 0 .422-.1.665-.301.25-.207.45-.455.6-.743l-.188-.16c-.3.338-.533.508-.702.508a.306.306 0 0 1-.225-.094c-.062-.063-.094-.167-.094-.31 0-.151.094-.486.281-1.007.194-.52.356-.9.487-1.138zm6.55 0l-.197.376c-.5.978-.75 1.771-.75 2.38 0 .488.176.733.526.733.2 0 .421-.1.665-.301.25-.207.45-.455.599-.743l-.187-.16c-.3.338-.534.508-.703.508a.306.306 0 0 1-.225-.094c-.062-.063-.093-.167-.093-.31 0-.151.093-.486.28-1.007.194-.52.357-.9.488-1.138zM3.841 4.458a7.138 7.138 0 0 1-.806 1.768c-.2.32-.427.57-.683.753-.256.188-.494.282-.713.282a.761.761 0 0 1-.534-.189.634.634 0 0 1-.196-.48c0-.495.293-.958.88-1.391a3.953 3.953 0 0 1 2.052-.743z" font-weight="400" font-family="Marck Script" letter-spacing="0" word-spacing="0"/></svg>