<svg xmlns="http://www.w3.org/2000/svg" xmlns:xlink="http://www.w3.org/1999/xlink" viewBox="0 0 56.091666 19.124644" height="72.282" width="212"><path d="M11.767.254l6.012.178q.456 0 1.141-.203.71-.229.94-.229.228 0 .355.152.151.127.151.33 0 .534-.482.915-.481.355-1.268.507-1.471.33-2.612.33-1.548 1.067-3.018 6.145 2.51 0 3.12.076l-.051 1.194q-.38.025-1.142.025l-2.307-.076q-1.421 4.343-3.83 6.907-2.41 2.564-5.098 2.564-1.649 0-2.663-.99Q0 17.09 0 15.464q0-2.616 3.12-4.748 3.119-2.16 7.684-2.286 1.548-4.875 3.627-6.196l-4.083-.152q-2.561 0-3.83.66-1.243.66-1.243 1.753 0 .583.483.99.48.38.963.38.482 0 .71-.025.254-.05.61-.178.379-.152.532-.203.532-.178 1.293-.559l.533.66Q8.472 7.49 6.188 7.49q-1.015 0-1.674-.634-.659-.635-.659-1.6 0-2.107 2.156-3.555Q8.167.254 11.768.254zm-3.55 14.194q1.37-2.133 2.182-4.774-3.146.254-5.555 2.006-2.384 1.753-2.384 3.76 0 .786.533 1.294.558.508 1.446.508.887 0 1.927-.762 1.04-.737 1.851-2.032zM24.306 15.875l.532.432q-.431 1.066-1.369 1.803-.914.736-1.674.736-.735 0-1.167-.508-.431-.533-.431-1.37 0-.84.28-2.16-1.193 1.88-2.563 2.946-1.37 1.067-2.307 1.067-1.421 0-1.421-2.032 0-1.726 1.167-4.418 1.166-2.691 1.698-3.123l1.219.533q-1.04 1.676-1.573 3.3-.533 1.626-.533 2.185 0 .533.33.863.355.33.811.33 1.015 0 2.511-1.854 1.522-1.88 3.095-5.586l1.293.585q-.05.203-1.166 2.945-1.09 2.742-1.09 3.3 0 .534.227.813.254.28.482.28.254 0 .38-.026.128-.026.254-.102.127-.076.203-.127.102-.05.229-.178l.202-.176q.05-.077.178-.23.152-.177.203-.228z"/><path d="M114.531 19.885c-1.406 0-2.558.544-3.455 1.633-.892 1.088-1.338 2.43-1.338 4.03 0 2.88 1.79 4.321 5.367 4.321v-.004c1.278 0 2.3-.575 3.069-1.726.766-1.154 1.15-2.402 1.15-3.743 0-1.345-.447-2.434-1.342-3.265-.894-.832-2.045-1.246-3.45-1.246zm-7.38 14.974c-.192.383-.863 1.662-2.012 3.836-5.113 9.98-7.668 18.075-7.668 24.284 0 4.988 1.789 7.482 5.367 7.482 2.043 0 4.31-1.024 6.803-3.072a24.39 24.39 0 0 0 6.136-7.578l-1.92-1.633c-3.066 3.452-5.46 5.177-7.183 5.177a3.146 3.146 0 0 1-2.307-.959c-.64-.637-.959-1.692-.959-3.164 0-1.534.96-4.958 2.88-10.27 1.98-5.31 3.641-9.18 4.982-11.608l-4.12-2.495z" transform="matrix(.26458 0 0 .26458 0 0)" id="a" stroke-width="3.78"/><path d="M43.318 11.685q1.218-1.244 2.131-1.7.939-.483 1.75-.483.836 0 1.37.583.558.56.558 1.473 0 2.362-1.98 4.977-1.977 2.59-4.26 2.59-.685 0-1.293-.253l.609-1.118q.405.102.633.102 1.548 0 2.816-1.727 1.268-1.727 1.268-3.402 0-.534-.356-.864-.33-.355-.861-.355-1.168 0-2.74 1.88-1.548 1.878-2.713 4.899l-1.548-.635q.76-3.885 3.043-9.47Q44.028 2.594 45.55.283l1.294.457q-1.675 3.123-3.577 7.745-1.877 4.622-2.207 6.272 1.04-1.828 2.257-3.073z"/><use xlink:href="#a" transform="translate(6.811)" width="100%" height="100%"/><use xlink:href="#a" transform="translate(24.287)" width="100%" height="100%"/></svg>